<svg width="36" height="36" viewBox="0 0 36 36" fill="none" xmlns="http://www.w3.org/2000/svg">
<g clip-path="url(#clip0_40_41)">
<path d="M28.3425 33.7755C27.1455 35.076 24.3735 35.9595 21.891 36H21.618C13.2825 36 11.469 29.754 11.469 26.109V15.987H8.187C8.0964 15.9868 8.00674 15.9685 7.92329 15.9332C7.83984 15.898 7.76426 15.8464 7.701 15.7815C7.57193 15.6491 7.49979 15.4714 7.5 15.2865V10.5045C7.50004 10.2593 7.57429 10.0198 7.713 9.81752C7.85137 9.61756 8.04846 9.46555 8.277 9.38252C12.5595 7.84352 13.899 4.03952 14.082 1.14752C14.1345 0.373516 14.5275 1.59707e-05 15.189 1.59707e-05H20.1C20.1918 -0.00183939 20.2831 0.0150252 20.3682 0.0495819C20.4533 0.0841386 20.5305 0.135663 20.595 0.201016C20.6605 0.266582 20.7124 0.344479 20.7477 0.430211C20.783 0.515943 20.8009 0.607813 20.8005 0.700516V8.80502H26.535C26.7165 8.80502 26.892 8.88002 27.021 9.01052C27.1501 9.14294 27.2222 9.3206 27.222 9.50552V15.2505C27.2222 15.4354 27.1501 15.6131 27.021 15.7455C26.9579 15.8106 26.8823 15.8625 26.7989 15.8981C26.7154 15.9336 26.6257 15.9521 26.535 15.9525H20.775V25.32C20.775 27.672 22.2975 28.3215 23.235 28.3215C24.0008 28.2879 24.7554 28.1251 25.467 27.84C25.7401 27.6936 26.0527 27.6379 26.3595 27.681C26.4872 27.7178 26.6024 27.7891 26.6924 27.887C26.7823 27.9849 26.8436 28.1056 26.8695 28.236L28.3875 32.757C28.4895 33.1125 28.5975 33.504 28.3425 33.777V33.7755Z" fill="black"/>
</g>
<defs>
<clipPath id="clip0_40_41">
<rect width="36" height="36" fill="white"/>
</clipPath>
</defs>
</svg>
