<svg width="36" height="36" viewBox="0 0 36 36" fill="none" xmlns="http://www.w3.org/2000/svg">
<path d="M28.4242 17.2192C28.4242 15.3112 27.738 13.9905 27.1507 12.9622L26.9707 12.6697C26.2575 11.5222 25.6342 10.5142 25.6342 9.33974C25.6342 7.92224 26.7097 6.59924 28.2262 6.59924C28.2712 6.59924 28.314 6.60374 28.3567 6.60599L28.4265 6.61274C25.5829 4.0008 21.8611 2.55355 18 2.55824C15.441 2.55692 12.9219 3.19234 10.6696 4.40722C8.41742 5.62211 6.50286 7.37828 5.09849 9.51749C5.45849 9.52874 5.80274 9.53774 6.09299 9.53774C7.70624 9.53774 10.206 9.34199 10.206 9.34199C11.0385 9.29249 11.1375 10.5142 10.305 10.6132C10.305 10.6132 9.47024 10.7122 8.53874 10.7595L14.1637 27.486L17.5387 17.3475L15.1312 10.7572C14.301 10.7077 13.5135 10.611 13.5135 10.611C12.681 10.5615 12.78 9.28799 13.6102 9.33749C13.6102 9.33749 16.1617 9.53324 17.6782 9.53324C19.2937 9.53324 21.7957 9.33749 21.7957 9.33749C22.6282 9.28799 22.725 10.512 21.8925 10.611C21.8925 10.611 21.0555 10.7077 20.1262 10.7572L25.7062 27.3555L27.2452 22.2097L27.3667 21.8205C27.9742 19.8855 28.422 18.4567 28.422 17.217L28.4242 17.2192ZM2.55824 18C2.55809 20.8997 3.37427 23.7408 4.91338 26.1983C6.45249 28.6558 8.65236 30.6303 11.2612 31.896L3.89249 11.7135C3.01011 13.6917 2.55544 15.8339 2.55824 18V18Z" fill="black"/>
<path d="M13.6373 32.8118L18.2723 19.35L23.0175 32.355C23.049 32.4293 23.085 32.499 23.1278 32.5665C20.0688 33.6442 16.7479 33.73 13.6373 32.8118V32.8118ZM31.5473 10.5908C31.6148 11.0835 31.653 11.61 31.653 12.1793C31.653 13.7453 31.3605 15.507 30.4785 17.7098L25.7625 31.3448C29.2426 29.3228 31.7953 26.0215 32.8763 22.1445C33.9573 18.2676 33.4812 14.1217 31.5495 10.5908H31.5473Z" fill="black"/>
<path fill-rule="evenodd" clip-rule="evenodd" d="M0 18C0 8.07525 8.07525 0 18 0C27.9225 0 36 8.07525 36 18C36 27.9247 27.9225 36 18 36C8.07525 36 0 27.9247 0 18ZM0.82575 18C0.82575 27.4703 8.52975 35.1743 18 35.1743C27.468 35.1743 35.172 27.4703 35.172 18C35.172 8.5275 27.468 0.82575 18 0.82575C8.5275 0.82575 0.82575 8.5275 0.82575 18Z" fill="black"/>
</svg>
