<svg width="36" height="36" viewBox="0 0 36 36" fill="none" xmlns="http://www.w3.org/2000/svg">
<path d="M1.7625 18.3375C1.686 18.3375 1.6215 18.4065 1.611 18.4875L1.2615 21.7185L1.611 24.876C1.6215 24.963 1.686 25.023 1.7625 25.023C1.8375 25.023 1.8975 24.963 1.911 24.876L2.2935 21.7185L1.8885 18.4875C1.8885 18.402 1.821 18.3375 1.7535 18.3375M0.405 19.5795C0.315 19.5795 0.2685 19.635 0.249 19.7205L0 21.7185L0.2475 23.6805C0.2475 23.763 0.315 23.8215 0.3825 23.8215C0.45 23.8215 0.516 23.754 0.5385 23.6655L0.8535 21.687L0.5385 19.686C0.5385 19.5945 0.4725 19.551 0.4035 19.551M3.1485 17.7075C3.057 17.7075 2.9685 17.775 2.9685 17.8635L2.6535 21.708L2.991 25.395C2.991 25.485 3.0585 25.575 3.1695 25.575C3.261 25.575 3.327 25.4835 3.351 25.395L3.732 21.684L3.351 17.862C3.327 17.772 3.2595 17.682 3.1695 17.682M4.587 17.5485C4.4745 17.5485 4.3845 17.6385 4.362 17.751L4.0725 21.711L4.3875 25.527C4.4115 25.6425 4.5 25.734 4.611 25.734C4.7235 25.734 4.8135 25.6425 4.836 25.509L5.196 21.711L4.836 17.7765C4.8362 17.7498 4.8311 17.7234 4.82099 17.6988C4.81089 17.6741 4.79598 17.6517 4.77713 17.6329C4.75829 17.614 4.73589 17.5991 4.71123 17.589C4.68657 17.5789 4.66015 17.5738 4.6335 17.574L4.587 17.5485V17.5485ZM6.3195 18.0885C6.31715 18.0274 6.2908 17.9696 6.24615 17.9278C6.2015 17.8859 6.14217 17.8634 6.081 17.865C5.946 17.865 5.844 17.955 5.835 18.0885L5.5095 21.7335L5.8095 25.578C5.8095 25.713 5.922 25.8135 6.048 25.8135C6.159 25.8135 6.27 25.7115 6.27 25.5765L6.6105 21.732L6.27 18.066L6.3195 18.0885V18.0885ZM7.533 15.525C7.3815 15.525 7.263 15.66 7.263 15.7965L6.948 21.732L7.2285 25.5765C7.2285 25.7115 7.3485 25.8225 7.4985 25.8225C7.6395 25.8225 7.7595 25.6875 7.7685 25.5525L8.082 21.708L7.7685 15.75C7.7565 15.594 7.6365 15.48 7.4985 15.48M8.937 14.109C8.85938 14.1117 8.78547 14.1428 8.72932 14.1965C8.67317 14.2502 8.63871 14.3226 8.6325 14.4L8.3625 21.708L8.61 25.53C8.61 25.71 8.745 25.8435 8.9025 25.8435C9.0585 25.8435 9.1935 25.71 9.2175 25.53L9.507 21.708L9.219 14.424C9.195 14.244 9.0615 14.109 8.904 14.109M10.3875 13.4355C10.206 13.4355 10.071 13.569 10.05 13.749L9.8025 21.6615L10.05 25.4415C10.071 25.62 10.206 25.779 10.3875 25.779C10.4763 25.7767 10.5608 25.7404 10.6236 25.6776C10.6864 25.6148 10.7227 25.5303 10.725 25.4415L11.0175 21.6615L10.7235 13.749C10.7216 13.6601 10.6854 13.5753 10.6225 13.5125C10.5596 13.4496 10.4749 13.4134 10.386 13.4115M12.2535 13.479C12.2541 13.4316 12.2452 13.3845 12.2273 13.3405C12.2095 13.2966 12.183 13.2566 12.1494 13.2231C12.1159 13.1895 12.0759 13.163 12.032 13.1452C11.988 13.1273 11.9409 13.1184 11.8935 13.119C11.7989 13.1216 11.7088 13.1604 11.6419 13.2274C11.5749 13.2943 11.5361 13.3844 11.5335 13.479L11.31 21.6405L11.5335 25.395C11.5575 25.5975 11.715 25.755 11.9175 25.755C12.12 25.755 12.2775 25.5975 12.2775 25.395L12.5235 21.6405L12.2775 13.4565L12.2535 13.479V13.479ZM13.377 13.278C13.2766 13.2806 13.1811 13.3216 13.11 13.3924C13.0388 13.4633 12.9975 13.5587 12.9945 13.659L12.7695 21.642L12.9945 25.3515C12.9945 25.5765 13.1745 25.734 13.377 25.734C13.5795 25.734 13.7595 25.554 13.7595 25.329L13.9845 21.618L13.737 13.6575C13.737 13.6042 13.7265 13.5514 13.706 13.5022C13.6856 13.4529 13.6556 13.4082 13.6178 13.3706C13.5801 13.333 13.5353 13.3032 13.4859 13.2829C13.4366 13.2626 13.3838 13.2523 13.3305 13.2525M14.838 13.5015C14.7249 13.5019 14.6165 13.5471 14.5367 13.6272C14.4568 13.7074 14.412 13.8159 14.412 13.929L14.2575 21.6435L14.46 25.3545C14.46 25.578 14.6385 25.77 14.886 25.77C15.1095 25.77 15.2925 25.59 15.312 25.3425L15.4935 21.678L15.291 14.01C15.273 13.764 15.0885 13.5825 14.8635 13.5825M16.6395 12.165C16.5648 12.1203 16.4791 12.0974 16.392 12.099C16.305 12.0976 16.2193 12.1205 16.1445 12.165C16.0774 12.2041 16.0216 12.2598 15.9824 12.3268C15.9433 12.3939 15.9221 12.4699 15.921 12.5475V12.639L15.765 21.711L15.9375 25.3845V25.3965C15.9495 25.4865 15.9825 25.599 16.0485 25.6665C16.0935 25.7148 16.1478 25.7535 16.2081 25.7803C16.2684 25.8071 16.3335 25.8214 16.3995 25.8225C16.5195 25.8225 16.6365 25.7565 16.713 25.6875C16.757 25.6431 16.7917 25.5904 16.8152 25.5325C16.8386 25.4745 16.8503 25.4125 16.8495 25.35L16.872 24.99L17.0475 21.6855L16.845 12.5565C16.8439 12.4846 16.8248 12.4141 16.7894 12.3515C16.754 12.2888 16.7035 12.2361 16.6425 12.198L16.6395 12.165V12.165ZM18.1485 11.3445C18.1199 11.3139 18.0849 11.2898 18.0461 11.274C18.0072 11.2582 17.9654 11.251 17.9235 11.253C17.8119 11.2488 17.7018 11.2809 17.61 11.3445C17.5555 11.3876 17.5113 11.4423 17.4804 11.5045C17.4496 11.5667 17.4329 11.635 17.4315 11.7045V11.748L17.226 21.6615L17.34 23.484L17.4315 25.2615C17.4315 25.5075 17.6535 25.7325 17.9235 25.7325C18.195 25.7325 18.4185 25.5075 18.4185 25.239L18.6435 21.618L18.4185 11.6625C18.4158 11.578 18.3917 11.4955 18.3484 11.4228C18.3051 11.3501 18.2441 11.2896 18.171 11.247M31.572 16.9125C30.985 16.9132 30.404 17.0316 29.8635 17.2605C29.6881 15.3183 28.7922 13.5121 27.3519 12.1974C25.9117 10.8827 24.0316 10.1546 22.0815 10.1565C21.093 10.1565 20.124 10.359 19.248 10.695C18.9105 10.83 18.843 10.965 18.8205 11.2335V25.2855C18.8445 25.5555 19.0455 25.7805 19.3155 25.803H31.593C34.0215 25.827 36 23.871 36 21.42C36 18.969 34.0215 16.992 31.593 16.992" fill="black"/>
</svg>
