<?xml version="1.0" encoding="UTF-8" standalone="no"?>
<!DOCTYPE svg PUBLIC "-//W3C//DTD SVG 1.1//EN" "http://www.w3.org/Graphics/SVG/1.1/DTD/svg11.dtd">
<svg width="100%" height="100%" viewBox="0 0 512 512" version="1.1" xmlns="http://www.w3.org/2000/svg" xmlns:xlink="http://www.w3.org/1999/xlink" xml:space="preserve" xmlns:serif="http://www.serif.com/" style="fill-rule:evenodd;clip-rule:evenodd;stroke-linejoin:round;stroke-miterlimit:2;">
    <g transform="matrix(0.683827,-1.67489e-16,1.67489e-16,0.683827,80.6689,80.9404)">
        <g transform="matrix(4.16667,0,0,4.16667,-1020.86,-1534.1)">
            <path d="M385.873,418.437C374.161,393.526 351.075,375.029 323.31,369.621L314.933,418.437L385.873,418.437Z" style="fill:rgb(17,13,11);fill-rule:nonzero;"/>
        </g>
        <g transform="matrix(4.16667,0,0,4.16667,-1020.86,-1534.1)">
            <path d="M289.585,369.621C261.819,375.029 238.733,393.526 227.021,418.437L297.962,418.437L289.585,369.621Z" style="fill:rgb(17,13,11);fill-rule:nonzero;"/>
        </g>
        <g transform="matrix(4.16667,0,0,4.16667,-1020.86,-1534.1)">
            <path d="M385.873,418.437L314.933,418.437L306.448,467.884L297.963,418.437L227.021,418.437C221.703,429.751 218.724,442.384 218.724,455.714C218.724,460.19 219.062,464.588 219.709,468.884L258.443,468.884L267.114,419.437L275.786,468.884L337.11,468.884L345.781,419.437L354.452,468.884L393.187,468.884C393.834,464.588 394.171,460.19 394.171,455.714C394.171,442.384 391.192,429.751 385.873,418.437" style="fill:rgb(194,33,38);fill-rule:nonzero;"/>
        </g>
        <g transform="matrix(4.16667,0,0,4.16667,-1020.86,-1534.1)">
            <path d="M363.298,519.331L366.846,519.331C380.667,506.204 390.214,488.622 393.186,468.884L354.451,468.884L363.298,519.331Z" style="fill:rgb(237,193,36);fill-rule:nonzero;"/>
        </g>
        <g transform="matrix(4.16667,0,0,4.16667,-1020.86,-1534.1)">
            <path d="M219.708,468.884C222.68,488.622 232.227,506.204 246.048,519.331L249.596,519.331L258.443,468.884L219.708,468.884Z" style="fill:rgb(237,193,36);fill-rule:nonzero;"/>
        </g>
        <g transform="matrix(4.16667,0,0,4.16667,-1020.86,-1534.1)">
            <path d="M296.474,476.684L296.474,519.472L286.748,519.472L286.735,490.585L282.863,519.472L275.965,519.472L271.882,491.247L271.869,519.472L262.143,519.472L262.143,476.684L276.54,476.684C276.967,479.256 277.408,482.288 277.861,485.781L279.441,496.664L281.998,476.684L296.474,476.684Z" style="fill:rgb(237,193,36);fill-rule:nonzero;"/>
        </g>
        <g transform="matrix(4.16667,0,0,4.16667,-1020.86,-1534.1)">
            <path d="M314.277,504.197C313.715,499.35 313.15,493.36 312.584,486.225C311.449,494.419 310.738,500.409 310.447,504.197L314.277,504.197ZM320.173,476.684L326.537,519.472L315.166,519.472L314.57,511.782L310.589,511.782L309.92,519.472L298.417,519.472L304.092,476.684L320.173,476.684Z" style="fill:rgb(237,193,36);fill-rule:nonzero;"/>
        </g>
        <g transform="matrix(4.16667,0,0,4.16667,-1020.86,-1534.1)">
            <path d="M350.984,476.684L347.072,495.607L352.965,519.472L342.659,519.472C341.426,515.206 340.299,510.008 339.276,503.879C338.996,506.594 338.605,509.466 338.102,512.496L337.055,519.472L326.22,519.472L330.263,495.607L326.22,476.684L336.976,476.684C337.172,477.863 337.558,479.827 338.136,482.576C338.602,484.671 338.982,486.601 339.276,488.366L341.654,476.684L350.984,476.684Z" style="fill:rgb(237,193,36);fill-rule:nonzero;"/>
        </g>
        <g transform="matrix(4.16667,0,0,4.16667,-1020.86,-1534.1)">
            <path d="M323.818,357.148C323.818,366.742 316.041,374.519 306.447,374.519C296.854,374.519 289.077,366.742 289.077,357.148C289.077,347.554 296.854,339.777 306.447,339.777C316.041,339.777 323.818,347.554 323.818,357.148" style="fill:rgb(194,33,38);fill-rule:nonzero;"/>
        </g>
        <g transform="matrix(4.16667,0,0,4.16667,-1020.86,-1534.1)">
            <path d="M297.737,374.519L308.535,380.753L297.737,386.987L297.737,374.519Z" style="fill:rgb(17,13,11);fill-rule:nonzero;"/>
        </g>
        <g transform="matrix(4.16667,0,0,4.16667,-1020.86,-1534.1)">
            <path d="M315.157,386.987L304.359,380.753L315.157,374.519L315.157,386.987Z" style="fill:rgb(17,13,11);fill-rule:nonzero;"/>
        </g>
    </g>
</svg>
